<svg width="22" height="23" viewBox="0 0 22 23" fill="none" xmlns="http://www.w3.org/2000/svg">
<path d="M0.00245186 20.22C-0.00370842 19.8344 0.164672 19.4986 0.328946 19.1627C3.11955 13.5062 5.92043 7.85561 8.69872 2.19314C9.12788 1.32061 9.69257 0.666713 10.7501 0.658763C11.8364 0.650813 12.4442 1.30272 12.8836 2.20109C15.6619 7.86356 18.4628 13.5141 21.2493 19.1726C21.7359 20.1604 21.662 20.858 20.9946 21.496C20.3704 22.0923 19.6271 22.3566 18.7523 22.0684C18.2102 21.8896 17.8591 21.5159 17.6188 21.023C17.0274 19.8146 16.4073 18.6161 15.8385 17.3977C15.6106 16.9088 15.319 16.6922 14.7358 16.6981C12.0992 16.726 9.46054 16.724 6.82394 16.7001C6.28389 16.6961 5.98614 16.877 5.76437 17.348C5.15861 18.632 4.53437 19.91 3.86495 21.1641C3.38239 22.0684 2.48299 22.4023 1.53431 22.13C0.606161 21.8617 -0.0180813 21.0846 0.000399561 20.218L0.00245186 20.22ZM10.7604 12.7529C11.5016 12.7529 12.245 12.7449 12.9863 12.7549C13.3826 12.7608 13.5037 12.6277 13.3251 12.2659C12.5694 10.7495 11.8179 9.23098 11.0643 7.71251C10.9061 7.3945 10.7357 7.33686 10.5571 7.69462C9.8014 9.2111 9.05191 10.7316 8.29624 12.248C8.08269 12.6754 8.29008 12.7648 8.68845 12.7569C9.3784 12.7449 10.0704 12.7529 10.7624 12.7529H10.7604Z" fill="#D5D5D5"/>
</svg>
