<svg width="184" height="33" viewBox="0 0 184 33" fill="none" xmlns="http://www.w3.org/2000/svg">
<mask id="path-1-inside-1_1_45" fill="white">
<path d="M20.4824 2.88989H163.426V29.6402H20.4824V2.88989Z"/>
</mask>
<path d="M20.4824 4.49931H163.426V1.28047H20.4824V4.49931ZM163.426 28.0308H20.4824V31.2497H163.426V28.0308Z" fill="#D0D0D0" mask="url(#path-1-inside-1_1_45)"/>
<path d="M6.55541 28.0556L3.11948 24.3475V8.18617L6.55868 4.47454H19.401V4.4815H20.9924V2.88989H5.86171L1.52808 7.56679V24.9669L5.85844 29.6402H20.9924V28.0545H19.401V28.0556H6.55541Z" fill="#D0D0D0"/>
<path d="M1.52808 2.88989H1.53108L1.52808 2.89314V2.88989Z" fill="#D0D0D0"/>
<path d="M0.7771 5.62414L5.19681 1H12.7387" stroke="#FFE279" stroke-linecap="round"/>
<path d="M0.7771 27.0671L5.19681 31.6913H12.7387" stroke="#FFE279" stroke-linecap="round"/>
<path d="M177.65 28.0555L181.086 24.3474V8.18604L177.647 4.47442H164.804V4.48138H163.213V2.88977H178.344L182.677 7.56667V24.9667L178.347 29.6401H163.213V28.0544H164.804V28.0555H177.65Z" fill="#D0D0D0"/>
<path d="M182.677 2.88977H182.674L182.677 2.89302V2.88977Z" fill="#D0D0D0"/>
<path d="M183.428 5.62414L179.008 1H171.466" stroke="#FFE279" stroke-linecap="round"/>
<path d="M183.428 27.067L179.008 31.6912H171.466" stroke="#FFE279" stroke-linecap="round"/>
</svg>
