<svg width="268" height="41" viewBox="0 0 268 41" fill="none" xmlns="http://www.w3.org/2000/svg">
<path d="M98.273 28.0033C99.2938 26.9826 99.9434 25.4978 99.9434 23.9202V18.7236C99.9434 17.146 99.2938 15.6612 98.273 14.6405C97.2522 13.6197 95.7675 12.9701 94.1899 12.9701H81.6622C81.4766 12.9701 81.291 13.1557 81.291 13.3413V29.3025C81.291 29.4881 81.4766 29.6737 81.6622 29.6737H94.1899C95.7675 29.6737 97.2522 29.0241 98.273 28.0033ZM82.683 14.0837H94.1899C95.3963 14.0837 96.5099 14.5477 97.345 15.3828C98.1802 16.218 98.6442 17.3316 98.6442 18.538V23.7346C98.6442 24.941 98.1802 26.0546 97.345 26.8898C96.5099 27.725 95.3963 28.1889 94.1899 28.1889H82.683V14.0837ZM117.575 25.0338L119.988 29.4881C120.081 29.5809 120.173 29.6737 120.266 29.6737H120.916C121.287 29.6737 121.38 29.4881 121.194 29.1169L112.564 13.2485C112.286 12.7845 111.914 12.5061 111.358 12.5061C110.801 12.5061 110.43 12.7845 110.151 13.2485L101.15 29.1169C100.964 29.4881 101.057 29.6737 101.521 29.6737H102.171C102.263 29.6737 102.449 29.5809 102.449 29.4881L105.047 25.0338H117.575ZM111.358 13.8981L116.833 23.7346H105.79L111.358 13.8981ZM126.669 29.6737H138.733C140.774 29.6737 142.352 28.0961 142.352 26.0546V16.4036C142.352 14.3621 140.682 12.7845 138.733 12.7845H126.669C124.628 12.7845 123.05 14.3621 123.05 16.4036V26.0546C123.05 28.0961 124.628 29.6737 126.669 29.6737ZM124.349 16.4036C124.349 15.1044 125.37 14.0837 126.669 14.0837H138.733C140.032 14.0837 141.053 15.1044 141.053 16.4036V26.0546C141.053 27.3538 140.032 28.3745 138.733 28.3745H126.669C125.37 28.3745 124.349 27.3538 124.349 26.0546V16.4036ZM153.581 29.8593C153.766 30.0449 154.045 30.0449 154.323 30.0449C154.787 30.0449 155.251 29.7665 155.529 29.3025L164.16 13.3413C164.345 12.9701 164.252 12.7845 163.788 12.7845H163.139C163.046 12.7845 162.86 12.8773 162.86 12.9701L154.323 28.7457L145.414 12.9701C145.322 12.8773 145.229 12.7845 145.136 12.7845H144.486C144.115 12.7845 144.022 12.9701 144.208 13.3413L153.302 29.3953C153.209 29.5809 153.395 29.7665 153.581 29.8593ZM165.83 16.4036V26.0546C165.83 28.1889 167.779 29.6737 169.82 29.6737H183.833C184.018 29.6737 184.204 29.4881 184.204 29.3025V28.7457C184.204 28.5601 184.018 28.3745 183.833 28.3745H169.82C168.521 28.3745 167.129 27.4466 167.129 26.0546V21.0435H182.812C182.997 21.0435 183.183 20.8579 183.183 20.6723V20.0227C183.183 19.8371 182.997 19.6515 182.812 19.6515H167.129V16.3108C167.129 14.9188 168.521 13.9909 169.82 13.9909H183.833C184.018 13.9909 184.204 13.8053 184.204 13.6197V13.0629C184.204 12.8773 184.018 12.6917 183.833 12.6917H169.82C167.871 12.7845 165.83 14.2693 165.83 16.4036ZM198.216 23.8274C199.144 23.8274 200.165 24.2914 201.093 25.0338C202.392 26.0546 203.599 27.4466 204.248 28.5601C204.341 28.6529 204.527 29.0241 204.712 29.3953C204.805 29.4881 204.898 29.5809 204.991 29.5809H205.826C206.104 29.5809 206.197 29.3953 206.104 29.2097C206.011 29.1169 206.011 28.9313 205.919 28.8385C205.64 28.4673 205.455 27.9105 205.269 27.8178C204.527 26.6114 203.227 25.0338 201.835 23.9202L201.557 23.7346H201.928C202.949 23.7346 203.97 23.2707 204.712 22.6211C205.455 21.8787 205.826 20.9507 205.826 19.8371V16.5892C205.826 15.4756 205.362 14.5477 204.712 13.8053C203.97 13.0629 203.042 12.6917 201.928 12.6917H187.452C187.266 12.6917 187.081 12.8773 187.081 13.0629V29.3025C187.081 29.4881 187.266 29.6737 187.452 29.6737H188.009C188.194 29.6737 188.38 29.4881 188.38 29.3025V23.8274H198.216ZM203.877 14.9188C204.341 15.3828 204.619 16.0324 204.619 16.7748V20.0227C204.619 20.7651 204.341 21.4147 203.877 21.8787C203.413 22.3427 202.763 22.6211 202.114 22.6211H188.658V14.2693H202.114C202.763 14.0837 203.413 14.4549 203.877 14.9188ZM227.819 26.6114V23.549C227.819 22.7139 227.448 21.9715 226.891 21.4147C226.334 20.8579 225.592 20.4867 224.757 20.4867H212.229C211.765 20.4867 211.301 20.3011 211.022 20.0227C210.744 19.7443 210.558 19.2803 210.558 18.8164V15.754C210.558 15.29 210.744 14.826 211.022 14.5477C211.301 14.2693 211.765 14.0837 212.229 14.0837H224.571C225.035 14.0837 225.499 14.2693 225.777 14.5477C226.056 14.826 226.241 15.29 226.241 15.754V16.0324C226.241 16.218 226.334 16.3108 226.52 16.3108H227.262C227.448 16.3108 227.54 16.218 227.54 16.0324V15.754C227.54 14.9188 227.169 14.1765 226.612 13.6197C226.056 13.0629 225.313 12.6917 224.478 12.6917H212.136C211.301 12.6917 210.558 13.0629 210.002 13.6197C209.445 14.1765 209.074 14.9188 209.074 15.754V18.8164C209.074 19.6515 209.445 20.3939 210.002 20.9507C210.558 21.5075 211.301 21.8787 212.136 21.8787H224.664C225.128 21.8787 225.592 22.0643 225.87 22.3427C226.148 22.6211 226.334 23.0851 226.334 23.549V26.6114C226.334 27.0754 226.148 27.5394 225.87 27.8178C225.592 28.0961 225.128 28.2817 224.664 28.2817H212.136C211.672 28.2817 211.208 28.0961 210.93 27.8178C210.651 27.5394 210.466 27.0754 210.466 26.6114V26.333C210.466 26.1474 210.373 26.0546 210.187 26.0546H209.445C209.259 26.0546 209.166 26.1474 209.166 26.333V26.6114C209.166 27.4466 209.538 28.1889 210.094 28.7457C210.651 29.3025 211.394 29.6737 212.229 29.6737H224.757C225.592 29.6737 226.334 29.3025 226.891 28.7457C227.448 28.1889 227.819 27.5394 227.819 26.6114ZM246.007 25.0338L248.42 29.4881C248.513 29.5809 248.606 29.6737 248.698 29.6737H249.348C249.719 29.6737 249.812 29.4881 249.626 29.1169L240.996 13.2485C240.718 12.7845 240.347 12.5061 239.79 12.5061C239.233 12.5061 238.862 12.7845 238.583 13.2485L229.489 29.1169C229.304 29.4881 229.396 29.6737 229.86 29.6737H230.51C230.603 29.6737 230.788 29.5809 230.788 29.4881L233.387 25.0338H246.007ZM239.883 13.8981C239.975 13.8981 239.975 13.8981 239.883 13.8981L245.358 23.7346H234.315L239.883 13.8981ZM252.689 28.6529C253.431 29.3025 254.359 29.6737 255.473 29.6737H267.444C267.629 29.6737 267.815 29.4881 267.815 29.3025V28.7457C267.815 28.5601 267.629 28.3745 267.444 28.3745H255.473C254.73 28.3745 254.081 28.0961 253.524 27.6322C253.06 27.261 252.781 26.6114 252.781 26.0546V13.1557C252.781 12.9701 252.596 12.7845 252.41 12.7845H251.853C251.668 12.7845 251.482 12.9701 251.482 13.1557V26.0546C251.482 27.0754 251.946 28.0033 252.689 28.6529Z" fill="black"/>
<path d="M82.683 14.0834V13.8979H82.4974V14.0834H82.683ZM82.683 28.3743H82.4974V28.5599H82.683V28.3743ZM98.4587 28.0959C99.5722 26.9824 100.222 25.4976 100.222 23.8272H99.8506C99.8506 25.4048 99.2011 26.7968 98.1803 27.8175L98.4587 28.0959ZM100.222 23.8272V18.6305H99.8506V23.8272H100.222ZM100.222 18.6305C100.222 16.9602 99.5722 15.4754 98.4587 14.3618L98.1803 14.6402C99.2011 15.661 99.8506 17.053 99.8506 18.6305H100.222ZM98.4587 14.3618C97.3451 13.2483 95.8603 12.5987 94.19 12.5987V12.9699C95.7675 12.9699 97.1595 13.6195 98.1803 14.6402L98.4587 14.3618ZM94.19 12.5987H81.6623V12.9699H94.19V12.5987ZM81.6623 12.5987C81.4767 12.5987 81.3839 12.6915 81.2911 12.7843C81.1983 12.8771 81.1055 13.0627 81.1055 13.1555H81.4767C81.4767 13.0627 81.4767 13.0627 81.4767 13.0627H81.5695V12.5987H81.6623ZM81.1055 13.1555V29.3023H81.4767V13.1555H81.1055ZM81.1055 29.3023C81.1055 29.4879 81.1983 29.5807 81.2911 29.6735C81.3839 29.7663 81.5695 29.8591 81.6623 29.8591V29.4879C81.5695 29.4879 81.5695 29.4879 81.5695 29.4879V29.3951H81.1055V29.3023ZM81.6623 29.8591H94.19V29.4879H81.6623V29.8591ZM94.19 29.8591C95.8603 29.8591 97.3451 29.2095 98.4587 28.0959L98.1803 27.8175C97.1595 28.8383 95.7675 29.4879 94.19 29.4879V29.8591ZM82.683 14.269H94.19V13.8979H82.683V14.269ZM94.19 14.269C95.3963 14.269 96.4171 14.733 97.2523 15.5682L97.5307 15.2898C96.6955 14.4546 95.4891 13.8979 94.19 13.8979V14.269ZM97.2523 15.5682C97.9947 16.3106 98.5515 17.4242 98.5515 18.6305H98.9227C98.9227 17.3314 98.3659 16.125 97.5307 15.2898L97.2523 15.5682ZM98.4587 18.6305V23.8272H98.8299V18.6305H98.4587ZM98.4587 23.8272C98.4587 25.0336 97.9947 26.0544 97.1595 26.8896L97.4379 27.1679C98.2731 26.3328 98.8299 25.1264 98.8299 23.8272H98.4587ZM97.2523 26.8896C96.5099 27.6319 95.3963 28.1887 94.19 28.1887V28.5599C95.4891 28.5599 96.6955 28.0031 97.5307 27.1679L97.2523 26.8896ZM94.19 28.1887H82.683V28.5599H94.19V28.1887ZM82.8686 28.3743V14.0834H82.4974V28.3743H82.8686ZM117.575 25.0336L117.761 24.9408L117.668 24.848H117.575V25.0336ZM105.047 25.0336V24.848H104.862L104.769 24.9408L105.047 25.0336ZM111.45 13.8979L111.543 13.8051L111.45 13.7123H111.358V13.8979H111.45ZM116.833 23.7344V23.92H117.111L116.925 23.6416L116.833 23.7344ZM105.79 23.7344L105.604 23.6416L105.419 23.92H105.697V23.7344H105.79ZM117.389 25.1264L119.802 29.5807L120.081 29.3951L117.668 24.9408L117.389 25.1264ZM119.802 29.5807C119.802 29.6735 119.895 29.7663 119.988 29.8591C120.081 29.9519 120.173 29.9519 120.266 29.9519V29.5807H120.173C120.173 29.5807 120.173 29.5807 120.081 29.4879L119.802 29.5807ZM120.266 29.8591H120.916V29.4879H120.266V29.8591ZM121.009 29.8591C121.194 29.8591 121.473 29.7663 121.565 29.5807C121.658 29.3951 121.658 29.2095 121.473 29.0239L121.194 29.2095C121.287 29.3951 121.287 29.3951 121.287 29.3951C121.287 29.3951 121.287 29.4879 121.101 29.4879V29.8591H121.009ZM121.473 29.0239L112.842 13.1555L112.471 13.3411L121.101 29.2095L121.473 29.0239ZM112.75 13.2483C112.471 12.6915 112.007 12.4131 111.358 12.4131V12.7843C111.822 12.7843 112.193 12.9699 112.378 13.4339L112.75 13.2483ZM111.45 12.4131C111.172 12.4131 110.894 12.5059 110.615 12.5987C110.43 12.6915 110.244 12.9699 110.058 13.1555L110.337 13.3411C110.522 13.1555 110.615 12.9699 110.801 12.8771C110.986 12.7843 111.172 12.6915 111.45 12.6915V12.4131ZM110.058 13.1555L100.964 29.0239L101.243 29.2095L110.337 13.3411L110.058 13.1555ZM100.964 29.0239C100.871 29.2095 100.779 29.3951 100.964 29.5807C101.057 29.7663 101.335 29.8591 101.521 29.8591V29.4879C101.335 29.4879 101.335 29.3951 101.335 29.3951C101.335 29.3951 101.335 29.3023 101.428 29.2095L100.964 29.0239ZM101.428 29.8591H102.078V29.4879H101.428V29.8591ZM102.078 29.8591C102.171 29.8591 102.263 29.8591 102.356 29.7663C102.449 29.6735 102.542 29.6735 102.542 29.4879L102.171 29.3951C102.171 29.3951 102.171 29.3951 102.078 29.4879C101.985 29.5807 101.985 29.4879 101.985 29.4879V29.8591H102.078ZM102.542 29.5807L105.14 25.1264L104.862 24.9408L102.263 29.3951L102.542 29.5807ZM105.047 25.2192H117.575V24.848H105.047V25.2192ZM111.543 14.0834L111.45 13.7123H111.358C111.358 13.7123 111.358 13.7123 111.265 13.7123L111.543 14.0834ZM111.358 14.0834L111.543 13.9907L111.636 13.8979L111.358 14.0834ZM111.265 13.9907L116.647 23.8272L117.018 23.6416L111.636 13.8051L111.265 13.9907ZM116.833 23.5488H105.79V23.92H116.833V23.5488ZM105.975 23.8272L111.636 13.9907L111.358 13.8051L105.697 23.6416L105.975 23.8272ZM126.669 29.8591H138.733V29.4879H126.669V29.8591ZM138.733 29.8591C140.867 29.8591 142.538 28.1887 142.538 26.0544H142.166C142.166 27.9103 140.589 29.4879 138.733 29.4879V29.8591ZM142.538 26.0544V16.4034H142.166V26.0544H142.538ZM142.538 16.4034C142.538 14.269 140.774 12.5987 138.733 12.5987V12.9699C140.589 12.9699 142.166 14.5474 142.166 16.4034H142.538ZM138.733 12.5987H126.669V12.9699H138.733V12.5987ZM126.669 12.5987C124.535 12.5987 122.865 14.269 122.865 16.4034H123.236C123.236 14.5474 124.813 12.9699 126.669 12.9699V12.5987ZM122.865 16.4034V26.0544H123.236V16.4034H122.865ZM122.865 26.0544C122.865 28.1887 124.535 29.8591 126.669 29.8591V29.4879C124.813 29.4879 123.236 27.9103 123.236 26.0544H122.865ZM124.535 16.4034C124.535 15.2898 125.463 14.269 126.669 14.269V13.8979C125.277 13.8979 124.164 15.0114 124.164 16.4034H124.535ZM126.669 14.269H138.733V13.8979H126.669V14.269ZM138.733 14.269C139.847 14.269 140.867 15.197 140.867 16.4034H141.238C141.238 15.0114 140.125 13.8979 138.733 13.8979V14.269ZM140.867 16.4034V26.0544H141.238V16.4034H140.867ZM140.867 26.0544C140.867 27.1679 139.847 28.1887 138.733 28.1887V28.5599C140.125 28.5599 141.238 27.4463 141.238 26.0544H140.867ZM138.733 28.1887H126.669V28.5599H138.733V28.1887ZM126.669 28.1887C125.556 28.1887 124.535 27.2607 124.535 26.0544H124.164C124.164 27.4463 125.277 28.5599 126.669 28.5599V28.1887ZM124.535 26.0544V16.4034H124.164V26.0544H124.535ZM154.323 28.7455L154.137 28.8383L154.323 29.1167L154.509 28.8383L154.323 28.7455ZM153.488 30.0447C153.766 30.2303 154.045 30.2303 154.323 30.2303V29.8591C154.045 29.8591 153.952 29.8591 153.766 29.6735L153.488 30.0447ZM154.323 30.2303C154.88 30.2303 155.437 29.9519 155.715 29.3951L155.344 29.2095C155.158 29.5807 154.787 29.8591 154.323 29.8591V30.2303ZM155.715 29.3951L164.345 13.4339L163.974 13.2483L155.344 29.3023L155.715 29.3951ZM164.345 13.4339C164.438 13.2483 164.531 13.0627 164.345 12.8771C164.252 12.6915 164.067 12.5987 163.788 12.5987V12.9699C163.974 12.9699 163.974 13.0627 163.974 13.0627C163.974 13.0627 163.974 13.1555 163.974 13.2483L164.345 13.4339ZM163.788 12.5987H163.139V12.9699H163.788V12.5987ZM163.139 12.5987C163.046 12.5987 162.953 12.5987 162.86 12.6915C162.768 12.7843 162.675 12.7843 162.675 12.9699L163.046 13.0627C163.046 13.0627 163.046 13.0627 163.139 12.9699H163.232V12.5987H163.139ZM162.675 12.8771L154.137 28.6527L154.509 28.8383L163.046 13.0627L162.675 12.8771ZM154.416 28.6527L145.507 12.8771L145.229 13.0627L154.137 28.8383L154.416 28.6527ZM145.507 12.9699C145.507 12.8771 145.414 12.7843 145.322 12.6915C145.229 12.5987 145.136 12.5987 145.043 12.5987V12.9699H145.136C145.136 12.9699 145.136 12.9699 145.229 13.0627L145.507 12.9699ZM145.043 12.5987H144.394V12.9699H145.043V12.5987ZM144.394 12.5987C144.208 12.5987 144.022 12.6915 143.837 12.8771C143.744 13.0627 143.744 13.2483 143.93 13.4339L144.208 13.2483C144.115 13.0627 144.115 13.0627 144.115 13.0627C144.115 13.0627 144.208 12.9699 144.301 12.9699V12.5987H144.394ZM143.93 13.4339L153.024 29.4879L153.302 29.3023L144.208 13.2483L143.93 13.4339ZM152.931 29.4879C153.024 29.7663 153.302 29.9519 153.488 30.0447L153.673 29.7663C153.488 29.6735 153.302 29.4879 153.209 29.3023L152.931 29.4879ZM167.222 21.1361V20.9505H167.036V21.1361H167.222ZM167.222 19.7441H167.036V19.9297H167.222V19.7441ZM165.644 16.4034V26.0544H166.016V16.4034H165.644ZM165.644 26.0544C165.644 28.3743 167.779 29.8591 169.82 29.8591V29.4879C167.871 29.4879 166.016 28.0959 166.016 26.0544H165.644ZM169.913 29.8591H183.926V29.4879H169.913V29.8591ZM183.926 29.8591C184.111 29.8591 184.204 29.7663 184.297 29.6735C184.39 29.5807 184.482 29.3951 184.482 29.3023H184.111C184.111 29.3951 184.111 29.3951 184.111 29.3951H184.018V29.8591H183.926ZM184.482 29.3023V28.7455H184.111V29.3023H184.482ZM184.482 28.7455C184.482 28.5599 184.39 28.4671 184.297 28.3743C184.204 28.2815 184.018 28.1887 183.926 28.1887V28.5599C184.018 28.5599 184.018 28.5599 184.018 28.5599V28.6527H184.482V28.7455ZM183.926 28.1887H169.913V28.5599H183.926V28.1887ZM169.913 28.1887C169.263 28.1887 168.707 28.0031 168.243 27.6319C167.779 27.2607 167.5 26.704 167.5 26.1472H167.036C167.036 26.8896 167.407 27.5391 167.964 28.0031C168.521 28.4671 169.171 28.6527 169.913 28.6527V28.1887ZM167.407 26.0544V21.0433H167.036V26.0544H167.407ZM167.222 21.3217H182.812V20.9505H167.129V21.3217H167.222ZM182.812 21.3217C182.998 21.3217 183.09 21.2289 183.183 21.1361C183.276 21.0433 183.369 20.8577 183.369 20.7649H182.998C182.998 20.8577 182.998 20.8577 182.998 20.8577H182.905V21.3217H182.812ZM183.369 20.7649V20.1153H182.998V20.7649H183.369ZM183.369 20.1153C183.369 19.9297 183.276 19.8369 183.183 19.7441C183.09 19.6513 182.905 19.5585 182.812 19.5585V19.9297C182.905 19.9297 182.905 19.9297 182.905 19.9297V20.0225H183.369V20.1153ZM182.812 19.5585H167.129V19.9297H182.812V19.5585ZM167.407 19.7441V16.4034H167.036V19.7441H167.407ZM167.407 16.4034C167.407 15.7538 167.686 15.2898 168.15 14.9186C168.614 14.5474 169.263 14.3618 169.82 14.3618V13.9907C169.171 13.9907 168.428 14.269 167.871 14.6402C167.315 15.1042 166.943 15.661 166.943 16.4962H167.407V16.4034ZM169.913 14.269H183.926V13.8979H169.913V14.269ZM183.926 14.269C184.111 14.269 184.204 14.1762 184.297 14.0834C184.39 13.9906 184.482 13.8051 184.482 13.7123H184.111C184.111 13.8051 184.111 13.8051 184.111 13.8051H184.018V14.269H183.926ZM184.482 13.8051V13.2483H184.111V13.8051H184.482ZM184.482 13.1555C184.482 12.9699 184.39 12.8771 184.297 12.7843C184.204 12.6915 184.018 12.5987 183.926 12.5987V12.9699C184.018 12.9699 184.018 12.9699 184.018 12.9699V13.0627H184.482V13.1555ZM183.926 12.5987H169.913V12.9699H183.926V12.5987ZM169.913 12.5987C167.779 12.5987 165.737 14.0834 165.737 16.4034H166.108C166.108 14.3618 167.964 12.9699 169.913 12.9699V12.5987ZM201.65 23.8272V23.6416H201.093L201.557 24.0128L201.65 23.8272ZM188.565 23.8272V23.6416H188.38V23.8272H188.565ZM188.565 22.5281H188.38V22.7137H188.565V22.5281ZM188.565 14.0834V13.8979H188.38V14.0834H188.565ZM198.216 24.0128C199.052 24.0128 200.072 24.4768 201 25.2192L201.186 24.9408C200.258 24.1984 199.144 23.6416 198.216 23.6416V24.0128ZM201 25.2192C202.299 26.24 203.413 27.5391 204.155 28.6527L204.434 28.4671C203.691 27.3535 202.578 25.9616 201.186 24.9408L201 25.2192ZM204.155 28.7455C204.248 28.8383 204.434 29.2095 204.712 29.5807L204.991 29.3951C204.805 29.0239 204.527 28.6527 204.527 28.5599L204.155 28.7455ZM204.619 29.4879C204.619 29.5807 204.712 29.6735 204.805 29.7663C204.898 29.8591 204.991 29.8591 205.083 29.8591V29.4879H204.991C204.991 29.4879 204.991 29.4879 204.898 29.3951L204.619 29.4879ZM205.083 29.8591H205.919V29.4879H205.083V29.8591ZM205.919 29.8591C206.104 29.8591 206.197 29.8591 206.29 29.6735C206.383 29.5807 206.383 29.3951 206.29 29.2095L205.919 29.3951C205.919 29.4879 205.919 29.4879 205.919 29.4879C205.919 29.4879 205.919 29.4879 205.826 29.4879V29.8591H205.919ZM206.383 29.2095C206.29 29.1167 206.29 28.9311 206.197 28.8383L205.919 29.0239C206.011 29.1167 206.011 29.2095 206.104 29.3951L206.383 29.2095ZM206.197 28.8383C206.104 28.7455 206.104 28.6527 206.011 28.5599C205.919 28.4671 205.919 28.3743 205.826 28.2815C205.733 28.0959 205.64 27.9103 205.547 27.8175L205.269 28.0959C205.362 28.1887 205.362 28.2815 205.547 28.4671C205.64 28.5599 205.64 28.6527 205.733 28.7455C205.826 28.8383 205.826 28.9311 205.919 29.0239L206.197 28.8383ZM205.547 27.8175C204.805 26.6112 203.506 25.0336 202.021 23.92L201.836 24.1984C203.227 25.312 204.527 26.7968 205.269 28.0031L205.547 27.8175ZM202.021 23.92L201.743 23.7344L201.557 24.0128L201.836 24.1984L202.021 23.92ZM201.65 24.0128H202.021V23.6416H201.65V24.0128ZM202.021 24.0128C203.135 24.0128 204.155 23.5488 204.898 22.8064L204.619 22.5281C203.97 23.1776 203.042 23.6416 202.021 23.6416V24.0128ZM204.898 22.8064C205.64 22.0641 206.104 21.0433 206.104 19.9297H205.733C205.733 20.9505 205.362 21.8785 204.619 22.5281L204.898 22.8064ZM206.104 19.9297V16.6818H205.733V19.9297H206.104ZM206.104 16.6818C206.104 15.5682 205.64 14.5474 204.898 13.8051L204.619 14.0834C205.269 14.733 205.733 15.661 205.733 16.7746H206.104V16.6818ZM204.898 13.8051C204.155 13.0627 203.135 12.5987 202.021 12.5987V12.9699C203.042 12.9699 203.97 13.3411 204.619 14.0834L204.898 13.8051ZM202.021 12.5987H187.545V12.9699H202.021V12.5987ZM187.545 12.5987C187.359 12.5987 187.266 12.6915 187.173 12.7843C187.081 12.8771 186.988 13.0627 186.988 13.1555H187.359C187.359 13.0627 187.359 13.0627 187.359 13.0627H187.452V12.5987H187.545ZM187.081 13.1555V29.3023H187.452V13.1555H187.081ZM187.081 29.3023C187.081 29.4879 187.173 29.5807 187.266 29.6735C187.359 29.7663 187.545 29.8591 187.637 29.8591V29.4879C187.545 29.4879 187.545 29.4879 187.545 29.4879V29.3951H187.081V29.3023ZM187.545 29.8591H188.101V29.4879H187.545V29.8591ZM188.194 29.8591C188.38 29.8591 188.473 29.7663 188.565 29.6735C188.658 29.5807 188.751 29.3951 188.751 29.3023H188.38C188.38 29.3951 188.38 29.3951 188.38 29.3951H188.287V29.8591H188.194ZM188.751 29.3023V23.8272H188.38V29.3023H188.751ZM188.565 24.0128H198.216V23.6416H188.565V24.0128ZM203.691 15.0114C204.155 15.4754 204.434 16.0322 204.434 16.6818H204.805C204.805 15.9394 204.527 15.197 203.97 14.733L203.691 15.0114ZM204.434 16.6818V19.9297H204.805V16.6818H204.434ZM204.434 19.9297C204.434 20.5793 204.155 21.2289 203.784 21.6001L204.063 21.8785C204.527 21.4145 204.898 20.6721 204.898 19.9297H204.434ZM203.691 21.6001C203.227 22.0641 202.671 22.3425 202.021 22.3425V22.7137C202.763 22.7137 203.506 22.4353 203.97 21.8785L203.691 21.6001ZM202.021 22.3425H188.565V22.7137H202.021V22.3425ZM188.751 22.5281V14.1762H188.38V22.5281H188.751ZM188.565 14.269H202.021V13.8979H188.565V14.269ZM202.021 14.269C202.671 14.269 203.32 14.5474 203.691 14.9186L203.97 14.6402C203.506 14.1762 202.763 13.8051 202.021 13.8051V14.269ZM228.005 26.6112V23.5488H227.633V26.6112H228.005ZM228.005 23.6416C228.005 22.8064 227.633 21.9713 227.077 21.3217L226.798 21.6001C227.355 22.1569 227.633 22.8064 227.633 23.6416H228.005ZM227.077 21.3217C226.52 20.7649 225.685 20.3937 224.757 20.3937V20.7649C225.592 20.7649 226.241 21.1361 226.798 21.6001L227.077 21.3217ZM224.757 20.3937H212.229V20.7649H224.757V20.3937ZM212.229 20.3937C211.765 20.3937 211.394 20.2081 211.115 19.9297L210.837 20.2081C211.208 20.4865 211.672 20.7649 212.229 20.7649V20.3937ZM211.115 19.9297C210.837 19.6513 210.651 19.2801 210.651 18.8161H210.28C210.28 19.3729 210.466 19.8369 210.837 20.1153L211.115 19.9297ZM210.651 18.9089V15.8466H210.28V18.9089H210.651ZM210.651 15.8466C210.651 15.3826 210.837 15.0114 211.115 14.733L210.837 14.4546C210.466 14.8258 210.28 15.2898 210.28 15.7538H210.651V15.8466ZM211.115 14.733C211.394 14.4546 211.765 14.269 212.229 14.269V13.8979C211.672 13.8979 211.208 14.0834 210.837 14.4546L211.115 14.733ZM212.229 14.269H224.571V13.8979H212.229V14.269ZM224.478 14.269C224.849 14.269 225.313 14.4546 225.592 14.733L225.87 14.4546C225.499 14.0834 225.035 13.8979 224.571 13.8979V14.269H224.478ZM225.592 14.733C225.87 15.0114 226.056 15.3826 226.056 15.8466H226.427C226.427 15.2898 226.241 14.8258 225.87 14.5474L225.592 14.733ZM226.056 15.8466V16.125H226.427V15.8466H226.056ZM226.056 16.125C226.056 16.4034 226.241 16.589 226.52 16.589V16.2178C226.427 16.2178 226.427 16.2178 226.427 16.125H226.056ZM226.52 16.589H227.262V16.2178H226.52V16.589ZM227.262 16.589C227.541 16.589 227.726 16.4034 227.726 16.125H227.355C227.355 16.2178 227.355 16.2178 227.262 16.2178V16.589ZM227.726 16.125V15.8466H227.355V16.125H227.726ZM227.726 15.8466C227.726 14.9186 227.355 14.1762 226.798 13.5267L226.52 13.8051C227.077 14.3618 227.355 15.0114 227.355 15.8466H227.726ZM226.798 13.5267C226.241 12.9699 225.406 12.5987 224.478 12.5987V12.9699C225.221 12.9699 225.963 13.2483 226.52 13.8051L226.798 13.5267ZM224.478 12.5987H212.136V12.9699H224.478V12.5987ZM212.229 12.5987C211.301 12.5987 210.558 12.9699 209.909 13.5267L210.187 13.8051C210.744 13.2483 211.394 12.9699 212.229 12.9699V12.5987ZM209.909 13.5267C209.259 14.0834 208.888 14.9186 208.888 15.8466H209.259C209.259 15.0114 209.538 14.3618 210.095 13.8051L209.909 13.5267ZM208.981 15.8466V18.9089H209.352V15.8466H208.981ZM208.981 18.9089C208.981 19.7441 209.352 20.5793 210.002 21.2289L210.28 20.9505C209.723 20.3937 209.445 19.7441 209.445 18.9089H208.981ZM209.909 21.1361C210.466 21.6929 211.301 22.0641 212.229 22.0641V21.6929C211.394 21.6929 210.744 21.3217 210.187 20.8577L209.909 21.1361ZM212.229 22.0641H224.757V21.6929H212.229V22.0641ZM224.757 22.0641C225.221 22.0641 225.592 22.2497 225.87 22.5281L226.149 22.2497C225.777 21.9713 225.313 21.6929 224.757 21.6929V22.0641ZM225.87 22.5281C226.149 22.8064 226.334 23.1776 226.334 23.6416H226.705C226.705 23.1776 226.52 22.6209 226.149 22.3425L225.87 22.5281ZM226.334 23.6416V26.704H226.705V23.6416H226.334ZM226.334 26.6112C226.334 26.9824 226.149 27.4463 225.87 27.7247L226.149 28.0031C226.52 27.6319 226.705 27.1679 226.705 26.704H226.334V26.6112ZM225.87 27.7247C225.592 28.0031 225.221 28.1887 224.757 28.1887V28.5599C225.313 28.5599 225.777 28.3743 226.149 28.0031L225.87 27.7247ZM224.757 28.1887H212.229V28.5599H224.757V28.1887ZM212.229 28.1887C211.765 28.1887 211.394 28.0031 211.115 27.7247L210.837 28.0031C211.208 28.3743 211.672 28.5599 212.229 28.5599V28.1887ZM211.115 27.7247C210.837 27.4463 210.651 27.0751 210.651 26.6112H210.28C210.28 27.1679 210.466 27.6319 210.837 27.9103L211.115 27.7247ZM210.651 26.6112V26.3328H210.28V26.6112H210.651ZM210.651 26.3328C210.651 26.0544 210.466 25.8688 210.187 25.8688V26.24C210.28 26.24 210.28 26.24 210.28 26.3328H210.651ZM210.187 25.8688H209.445V26.24H210.187V25.8688ZM209.445 25.8688C209.167 25.8688 208.981 26.0544 208.981 26.3328H209.352C209.352 26.24 209.352 26.24 209.445 26.24V25.8688ZM208.981 26.3328V26.6112H209.352V26.3328H208.981ZM208.981 26.6112C208.981 27.5391 209.352 28.2815 210.002 28.9311L210.28 28.6527C209.723 28.0959 209.445 27.4463 209.445 26.6112H208.981ZM209.909 28.9311C210.466 29.4879 211.301 29.8591 212.229 29.8591V29.4879C211.394 29.4879 210.744 29.2095 210.187 28.6527L209.909 28.9311ZM212.229 29.8591H224.757V29.4879H212.229V29.8591ZM224.757 29.8591C225.685 29.8591 226.427 29.4879 227.077 28.9311L226.798 28.6527C226.241 29.2095 225.592 29.4879 224.757 29.4879V29.8591ZM227.077 28.9311C227.633 28.3743 228.005 27.5391 228.005 26.6112H227.633C227.633 27.4463 227.355 28.0959 226.798 28.6527L227.077 28.9311ZM246.007 25.0336L246.193 24.9408L246.1 24.848H246.007V25.0336ZM233.48 25.0336V24.848H233.387L233.294 24.9408L233.48 25.0336ZM239.883 13.8979L239.975 13.8051L239.883 13.7123H239.79V13.8979H239.883ZM245.265 23.7344V23.92H245.543L245.358 23.6416L245.265 23.7344ZM234.222 23.7344L234.036 23.6416L233.851 23.92H234.129V23.7344H234.222ZM245.914 25.1264L248.327 29.5807L248.698 29.3951L246.286 24.9408L245.914 25.1264ZM248.327 29.5807C248.327 29.6735 248.42 29.7663 248.513 29.8591C248.606 29.9519 248.698 29.9519 248.791 29.9519V29.5807H248.698C248.698 29.5807 248.698 29.5807 248.606 29.4879L248.327 29.5807ZM248.791 29.8591H249.441V29.4879H248.791V29.8591ZM249.441 29.8591C249.626 29.8591 249.905 29.7663 249.998 29.5807C250.09 29.3951 250.09 29.2095 249.905 29.0239L249.626 29.2095C249.719 29.3951 249.719 29.3951 249.719 29.3951C249.719 29.3951 249.719 29.4879 249.534 29.4879V29.8591H249.441ZM249.905 29.0239L241.275 13.2483L240.903 13.4339L249.534 29.3023L249.905 29.0239ZM241.275 13.2483C240.996 12.6915 240.532 12.4131 239.883 12.4131V12.7843C240.347 12.7843 240.718 12.9699 240.903 13.4339L241.275 13.2483ZM239.883 12.4131C239.604 12.4131 239.326 12.5059 239.047 12.5987C238.862 12.6915 238.676 12.9699 238.491 13.1555L238.769 13.3411C238.955 13.1555 239.047 12.9699 239.233 12.8771C239.419 12.7843 239.604 12.6915 239.883 12.6915V12.4131ZM238.583 13.1555L229.489 29.0239L229.768 29.2095L238.862 13.3411L238.583 13.1555ZM229.396 29.0239C229.304 29.2095 229.211 29.3951 229.396 29.5807C229.489 29.7663 229.768 29.8591 229.953 29.8591V29.4879C229.768 29.4879 229.768 29.3951 229.768 29.3951C229.768 29.3951 229.768 29.3023 229.86 29.2095L229.396 29.0239ZM229.953 29.8591H230.603V29.4879H229.953V29.8591ZM230.603 29.8591C230.696 29.8591 230.788 29.8591 230.881 29.7663C230.974 29.6735 231.067 29.6735 231.067 29.4879L230.696 29.3951C230.696 29.3951 230.696 29.3951 230.603 29.4879H230.51V29.8591H230.603ZM231.067 29.5807L233.665 25.1264L233.387 24.9408L230.788 29.3951L231.067 29.5807ZM233.48 25.2192H246.007V24.848H233.48V25.2192ZM239.975 14.0834C239.883 14.0834 239.883 14.0834 239.975 14.0834L239.883 13.7123C239.883 13.7123 239.883 13.7123 239.79 13.7123C239.79 13.7123 239.79 13.7123 239.697 13.7123L239.975 14.0834ZM239.79 14.0834L239.975 13.9907L240.068 13.8979L239.79 14.0834ZM239.79 13.9907L245.172 23.8272L245.543 23.6416L240.161 13.8051L239.79 13.9907ZM245.265 23.5488H234.222V23.92H245.265V23.5488ZM234.408 23.8272L240.068 13.9907L239.79 13.8051L234.129 23.6416L234.408 23.8272ZM252.596 28.8383C253.338 29.4879 254.359 29.9519 255.473 29.9519V29.5807C254.452 29.5807 253.524 29.2095 252.782 28.5599L252.596 28.8383ZM255.473 29.8591H267.444V29.4879H255.473V29.8591ZM267.444 29.8591C267.629 29.8591 267.722 29.7663 267.815 29.6735C267.908 29.5807 268 29.3951 268 29.3023H267.629C267.629 29.3951 267.629 29.3951 267.629 29.3951H267.536V29.8591H267.444ZM268 29.3023V28.7455H267.629V29.3023H268ZM268 28.7455C268 28.5599 267.908 28.4671 267.815 28.3743C267.722 28.2815 267.536 28.1887 267.444 28.1887V28.5599C267.536 28.5599 267.536 28.5599 267.536 28.5599V28.6527H268V28.7455ZM267.444 28.1887H255.473V28.5599H267.444V28.1887ZM255.473 28.1887C254.73 28.1887 254.173 27.9103 253.617 27.5391L253.338 27.8175C253.895 28.2815 254.638 28.5599 255.38 28.5599V28.1887H255.473ZM253.71 27.5391C253.246 27.1679 253.06 26.6112 253.06 26.0544H252.689C252.689 26.704 252.967 27.3535 253.524 27.8175L253.71 27.5391ZM252.967 26.0544V13.1555H252.596V26.0544H252.967ZM252.967 13.1555C252.967 12.9699 252.874 12.8771 252.782 12.7843C252.689 12.6915 252.503 12.5987 252.41 12.5987V12.9699C252.503 12.9699 252.503 12.9699 252.503 12.9699V13.0627H252.967V13.1555ZM252.503 12.5987H251.946V12.9699H252.503V12.5987ZM251.854 12.5987C251.668 12.5987 251.575 12.6915 251.482 12.7843C251.39 12.8771 251.297 13.0627 251.297 13.1555H251.668C251.668 13.0627 251.668 13.0627 251.668 13.0627H251.761V12.5987H251.854ZM251.297 13.1555V26.0544H251.668V13.1555H251.297ZM251.297 26.0544C251.297 27.1679 251.761 28.0959 252.596 28.7455L252.874 28.4671C252.132 27.8175 251.761 26.9824 251.761 26.0544H251.297Z" fill="black"/>
<path d="M60.8754 1.36989C57.0707 -0.764458 52.2452 -0.393266 47.2341 2.39067L34.428 9.6289C33.8712 10.0001 33.1288 10.0001 32.4793 9.6289C28.2106 7.21616 23.9419 4.80341 19.6732 2.39067C14.6621 -0.393266 9.83658 -0.764458 5.93907 1.46269C2.13435 3.59704 0 7.95854 0 13.6192V27.2605C0 32.9212 2.13435 37.2827 5.93907 39.417C7.60943 40.345 9.46538 40.809 11.4141 40.809C14.0125 40.809 16.7964 39.9738 19.5804 38.3962L32.4793 31.158C33.036 30.7868 33.7784 30.7868 34.428 31.158C38.6967 33.5708 42.9654 35.9835 47.2341 38.3962C50.1109 39.9738 52.8948 40.809 55.4931 40.809C57.4419 40.809 59.2978 40.345 60.9682 39.417C64.7729 37.2827 66.9073 32.9212 66.9073 27.2605V13.6192C66.8145 7.86574 64.6801 3.59704 60.8754 1.36989ZM61.061 27.2605C61.061 30.7868 59.9474 33.3852 57.9987 34.4987C55.8643 35.7051 53.266 34.6843 50.0181 33.478C47.6981 32.55 46.7701 31.8076 38.5111 27.1677C37.3975 26.5181 35.7272 25.5901 33.4072 25.4973C31.7369 25.4045 30.3449 25.8685 29.5097 26.2397C25.241 28.6525 20.9723 31.158 16.6108 33.5708C13.5485 35.3339 10.6718 35.7051 8.723 34.5915C6.77425 33.478 5.66067 30.7868 5.66067 27.2605V13.6192C5.66067 10.0929 6.77425 7.49455 8.723 6.38098C10.8574 5.17461 13.3629 6.19538 16.7036 7.40176C18.838 8.23694 20.0443 8.97932 28.025 13.6192C31.0873 15.3824 32.2937 15.8464 33.8712 15.7536C35.0776 15.7536 36.0984 15.3824 36.748 15.0112C41.2023 12.4128 45.6566 9.9073 50.1109 7.30896C53.1732 5.5458 56.0499 5.17461 57.9987 6.28818C59.9474 7.40176 61.061 10.0929 61.061 13.6192V27.2605Z" fill="black"/>
</svg>
