<svg width="297" height="45" viewBox="0 0 297 45" fill="none" xmlns="http://www.w3.org/2000/svg">
<path d="M280.161 30.0116C279.339 29.2953 278.834 28.2871 278.834 27.1728V12.5808H280.294V27.1728C280.294 27.8361 280.612 28.4728 281.116 28.9239C281.673 29.4014 282.416 29.6933 283.239 29.6933H296.796V31.1525H283.239C282.045 31.1525 280.957 30.7014 280.161 30.0116Z" fill="#B8B8B8"/>
<path d="M272.825 26.0584H259.028L256.084 31.1523H254.412L264.786 13.1113C264.945 12.8725 265.131 12.6603 265.343 12.5276C265.582 12.395 265.847 12.3419 266.112 12.3419C266.404 12.3419 266.643 12.4215 266.882 12.5542C267.094 12.6868 267.28 12.8991 267.412 13.1378L277.282 31.1523H275.61L272.825 26.0584ZM266.059 13.8277L259.877 24.5992H272.029L266.139 13.8277C266.139 13.8277 266.139 13.8011 266.112 13.8011C266.086 13.8011 266.086 13.8011 266.086 13.8011L266.059 13.8277Z" fill="#B8B8B8"/>
<path d="M252.802 27.8096C252.802 28.7381 252.43 29.5606 251.82 30.1708C251.21 30.781 250.361 31.1525 249.432 31.1525H235.61C234.681 31.1525 233.859 30.781 233.248 30.1708C232.612 29.5606 232.24 28.7381 232.24 27.8096V27.1728H233.699V27.8096C233.699 28.3136 233.912 28.7912 234.257 29.1361C234.601 29.481 235.079 29.6933 235.61 29.6933H249.432C249.963 29.6933 250.44 29.481 250.785 29.1361C251.13 28.7912 251.342 28.3136 251.342 27.8096V24.4667C251.342 23.9626 251.13 23.485 250.785 23.1401C250.44 22.8217 249.963 22.6095 249.432 22.6095H235.61C234.681 22.6095 233.859 22.2115 233.248 21.6279C232.612 21.0176 232.24 20.1687 232.24 19.2666V15.9237C232.24 14.9951 232.612 14.1727 233.248 13.5625C233.859 12.9522 234.681 12.5808 235.61 12.5808H249.14C250.042 12.5808 250.891 12.9522 251.502 13.5625C252.112 14.1727 252.51 14.9951 252.51 15.9237V16.5604H251.024V15.9237C251.024 15.3931 250.812 14.9421 250.467 14.5972C250.122 14.2523 249.645 14.04 249.14 14.04H235.61C235.079 14.04 234.601 14.2523 234.257 14.5972C233.912 14.9421 233.699 15.3931 233.699 15.9237V19.2666C233.699 19.7707 233.912 20.2482 234.257 20.5931C234.601 20.9115 235.079 21.1238 235.61 21.1238H249.432C250.361 21.1238 251.21 21.5217 251.82 22.1054C252.43 22.7156 252.802 23.5646 252.802 24.4667V27.8096Z" fill="#B8B8B8"/>
<path d="M220.229 24.732H209.616V31.1525H208.157V12.5808H224.447C225.615 12.5808 226.702 13.0584 227.472 13.8278C228.241 14.6237 228.719 15.6849 228.719 16.8788V20.434C228.719 21.6279 228.241 22.6891 227.472 23.4585C226.702 24.2544 225.615 24.732 224.447 24.732H224.023C224.102 24.785 224.208 24.8646 224.315 24.9442C225.88 26.1381 227.313 27.8361 228.135 29.1892C228.268 29.3484 228.56 29.879 228.825 30.33C229.011 30.6749 229.196 30.9933 229.249 31.0994L229.143 31.1525H227.604L227.551 31.0463C227.313 30.6218 227.021 30.1177 226.915 29.9586C226.145 28.7116 224.872 27.1993 223.413 26.085C222.351 25.2891 221.237 24.732 220.229 24.732ZM226.437 14.8625C225.933 14.3584 225.217 14.04 224.447 14.04H209.616V23.2728H224.447C225.217 23.2728 225.933 22.9544 226.437 22.4238C226.941 21.9197 227.259 21.2034 227.259 20.434V16.8788C227.259 16.0829 226.941 15.3931 226.437 14.8625Z" fill="#B8B8B8"/>
<path d="M186.005 13.7216C186.801 13.0318 187.888 12.5808 189.082 12.5808H204.895V14.04H189.082C188.26 14.04 187.517 14.3319 186.96 14.8094C186.456 15.2604 186.137 15.8972 186.137 16.5604V20.2217H203.754V21.7074H186.137V27.1728C186.137 27.8361 186.456 28.4728 186.96 28.9239C187.517 29.4014 188.26 29.6933 189.082 29.6933H204.895V31.1525H189.082C187.888 31.1525 186.801 30.728 186.005 30.0116C185.182 29.2953 184.678 28.2871 184.678 27.1728V16.5604C184.678 15.4462 185.182 14.438 186.005 13.7216Z" fill="#B8B8B8"/>
<path d="M171.213 31.3647C170.974 31.232 170.789 31.0463 170.656 30.8076L160.335 12.5808H162.007L171.929 30.0912L171.956 30.1177C171.956 30.1177 171.956 30.1177 171.983 30.1177L172.009 30.0912L181.428 12.5808H183.099L173.309 30.781C173.176 31.0198 172.991 31.232 172.752 31.3647C172.54 31.4974 172.274 31.5769 171.983 31.5769C171.691 31.5769 171.452 31.5239 171.213 31.3647Z" fill="#B8B8B8"/>
<path d="M141.556 31.1525C140.468 31.1525 139.46 30.7014 138.744 29.9851C138.027 29.2688 137.576 28.2606 137.576 27.1728V16.5604C137.576 15.4727 138.027 14.4645 138.744 13.7482C139.46 13.0318 140.468 12.5808 141.556 12.5808H154.795C155.909 12.5808 156.891 13.0318 157.634 13.7482C158.35 14.4645 158.801 15.4727 158.801 16.5604V27.1728C158.801 28.2606 158.35 29.2688 157.634 29.9851C156.891 30.7014 155.909 31.1525 154.795 31.1525H141.556ZM139.035 16.5604V27.1728C139.035 27.8626 139.327 28.4994 139.778 28.9504C140.229 29.4014 140.866 29.6933 141.556 29.6933H154.795C155.485 29.6933 156.121 29.4014 156.599 28.9504C157.05 28.4994 157.342 27.8626 157.342 27.1728V16.5604C157.342 15.8706 157.05 15.2339 156.599 14.7829C156.121 14.3319 155.485 14.04 154.795 14.04H141.556C140.866 14.04 140.229 14.3319 139.778 14.7829C139.327 15.2339 139.035 15.8706 139.035 16.5604Z" fill="#B8B8B8"/>
<path d="M131.542 26.0584H117.746L114.801 31.1523H113.13L123.503 13.1113C123.663 12.8725 123.848 12.6603 124.061 12.5276C124.299 12.395 124.565 12.3419 124.83 12.3419C125.122 12.3419 125.361 12.4215 125.599 12.5542C125.812 12.6868 125.997 12.8991 126.13 13.1378L136 31.1523H134.328L131.542 26.0584ZM124.777 13.8277L118.595 24.5992H130.746L124.857 13.8277C124.857 13.8277 124.857 13.8011 124.83 13.8011C124.803 13.8011 124.803 13.8011 124.803 13.8011L124.777 13.8277Z" fill="#B8B8B8"/>
<path d="M110.374 29.2688C109.206 30.4361 107.614 31.1525 105.837 31.1525H91.6958V12.5808H105.837C107.614 12.5808 109.206 13.2971 110.374 14.4645C111.541 15.6319 112.257 17.2503 112.257 19.0013V24.732C112.257 26.483 111.541 28.1014 110.374 29.2688ZM93.155 14.04V29.6933H105.837C107.19 29.6933 108.437 29.1361 109.339 28.2341C110.241 27.332 110.798 26.085 110.798 24.732V19.0013C110.798 17.6482 110.241 16.4013 109.339 15.4992C108.437 14.5972 107.19 14.04 105.837 14.04H93.155Z" fill="#B8B8B8"/>
<path fill-rule="evenodd" clip-rule="evenodd" d="M278.834 27.1729C278.834 28.2872 279.338 29.2954 280.161 30.0117C280.956 30.7015 282.044 31.1526 283.238 31.1526H296.795V29.6934H283.238C282.416 29.6934 281.673 29.4015 281.116 28.924C280.612 28.4729 280.293 27.8362 280.293 27.1729V12.5809H278.834V27.1729ZM281.25 28.7703C280.784 28.353 280.497 27.7701 280.497 27.1729V12.3768H278.63V27.1729C278.63 28.3512 279.163 29.4139 280.026 30.1656C280.858 30.886 281.993 31.3566 283.238 31.3566H296.999V29.4893H283.238C282.465 29.4893 281.77 29.2155 281.25 28.7703Z" fill="#B8B8B8"/>
<path fill-rule="evenodd" clip-rule="evenodd" d="M275.61 31.1524L272.824 26.0585H259.028L256.083 31.1524H254.412L264.785 13.1114C264.945 12.8726 265.13 12.6604 265.343 12.5277C265.581 12.3951 265.847 12.342 266.112 12.342C266.404 12.342 266.643 12.4216 266.881 12.5543C267.094 12.6869 267.279 12.8992 267.412 13.138L277.281 31.1524H275.61ZM259.146 26.2626L256.201 31.3565H254.059L264.615 12.998C264.782 12.7478 264.987 12.5091 265.234 12.3547L265.243 12.3491C265.519 12.1961 265.82 12.1379 266.112 12.1379C266.446 12.1379 266.719 12.2304 266.98 12.3759L266.99 12.381C267.237 12.5357 267.445 12.7768 267.59 13.0388L277.626 31.3565H275.489L272.703 26.2626H259.146ZM266.059 13.8278L259.877 24.5993H272.028L266.139 13.8278C266.139 13.8278 266.139 13.8012 266.112 13.8012H266.085L266.059 13.8278ZM266.085 13.8278H266.059C266.067 13.8278 266.076 13.8278 266.085 13.8278ZM266.085 13.8278V13.843V13.8278ZM266.095 14.1742L260.23 24.3952H271.684L266.095 14.1742Z" fill="#B8B8B8"/>
<path fill-rule="evenodd" clip-rule="evenodd" d="M251.82 30.1709C252.43 29.5607 252.801 28.7382 252.801 27.8097V24.4668C252.801 23.5647 252.43 22.7157 251.82 22.1055C251.209 21.5218 250.36 21.1239 249.432 21.1239H235.609C235.079 21.1239 234.601 20.9116 234.256 20.5933C233.911 20.2484 233.699 19.7708 233.699 19.2667V15.9238C233.699 15.3932 233.911 14.9422 234.256 14.5973C234.601 14.2524 235.079 14.0401 235.609 14.0401H249.14C249.644 14.0401 250.122 14.2524 250.466 14.5973C250.811 14.9422 251.024 15.3932 251.024 15.9238V16.5606H252.509V15.9238C252.509 14.9952 252.111 14.1728 251.501 13.5626C250.891 12.9523 250.042 12.5809 249.14 12.5809H235.609C234.681 12.5809 233.858 12.9523 233.248 13.5626C232.611 14.1728 232.24 14.9952 232.24 15.9238V19.2667C232.24 20.1688 232.611 21.0177 233.248 21.628C233.858 22.2116 234.681 22.6096 235.609 22.6096H249.432C249.962 22.6096 250.44 22.8218 250.785 23.1402C251.13 23.4851 251.342 23.9627 251.342 24.4668V27.8097C251.342 28.3137 251.13 28.7913 250.785 29.1362C250.44 29.4811 249.962 29.6934 249.432 29.6934H235.609C235.079 29.6934 234.601 29.4811 234.256 29.1362C233.911 28.7913 233.699 28.3137 233.699 27.8097V27.1729H232.24V27.8097C232.24 28.7382 232.611 29.5607 233.248 30.1709C233.858 30.7811 234.681 31.1526 235.609 31.1526H249.432C250.36 31.1526 251.209 30.7811 251.82 30.1709ZM233.105 30.3168C232.43 29.6694 232.036 28.7948 232.036 27.8097V26.9688H233.903V27.8097C233.903 28.2566 234.092 28.6831 234.4 28.9919C234.708 29.2996 235.134 29.4893 235.609 29.4893H249.432C249.907 29.4893 250.333 29.2996 250.641 28.9919C250.949 28.6831 251.138 28.2566 251.138 27.8097V24.4668C251.138 24.0212 250.951 23.596 250.643 23.2874C250.334 23.0028 249.906 22.8137 249.432 22.8137H235.609C234.62 22.8137 233.749 22.3897 233.107 21.7754C232.43 21.1273 232.036 20.2251 232.036 19.2667V15.9238C232.036 14.9387 232.43 14.0641 233.105 13.4167C233.752 12.7711 234.625 12.3768 235.609 12.3768H249.14C250.098 12.3768 250.998 12.7711 251.645 13.4182C252.289 14.0618 252.713 14.9345 252.713 15.9238V16.7646H250.82V15.9238C250.82 15.4519 250.632 15.0516 250.322 14.7416C250.013 14.4327 249.587 14.2442 249.14 14.2442H235.609C235.134 14.2442 234.708 14.4339 234.4 14.7416C234.09 15.0516 233.903 15.4519 233.903 15.9238V19.2667C233.903 19.7122 234.09 20.1374 234.397 20.4459C234.707 20.7306 235.135 20.9198 235.609 20.9198H249.432C250.419 20.9198 251.317 21.3425 251.961 21.958L251.964 21.9612C252.611 22.6084 253.005 23.5088 253.005 24.4668V27.8097C253.005 28.795 252.61 29.6687 251.964 30.3152C251.316 30.963 250.415 31.3566 249.432 31.3566H235.609C234.625 31.3566 233.752 30.9624 233.105 30.3168Z" fill="#B8B8B8"/>
<path fill-rule="evenodd" clip-rule="evenodd" d="M220.228 24.7321C221.236 24.7321 222.351 25.2892 223.412 26.0852C224.871 27.1995 226.145 28.7117 226.914 29.9587C227.02 30.1179 227.312 30.6219 227.551 31.0464L227.604 31.1526H229.143L229.249 31.0995C229.23 31.0627 229.196 31.0003 229.151 30.9201C229.134 30.8901 229.116 30.8576 229.097 30.823C229.019 30.6837 228.921 30.5105 228.824 30.3301C228.755 30.2127 228.684 30.0899 228.615 29.9697C228.418 29.628 228.233 29.307 228.135 29.1893C227.312 27.8362 225.879 26.1382 224.314 24.9443C224.31 24.9416 224.307 24.9389 224.303 24.9362C224.201 24.8593 224.099 24.7833 224.022 24.7321H224.447C225.614 24.7321 226.702 24.2545 227.471 23.4586C228.241 22.6892 228.718 21.628 228.718 20.4341V16.8789C228.718 15.685 228.241 14.6238 227.471 13.8279C226.702 13.0585 225.614 12.5809 224.447 12.5809H208.157V31.1526H209.616V24.7321H220.228ZM209.82 24.9362V31.3566H207.953V12.3768H224.447C225.669 12.3768 226.809 12.8768 227.616 13.6836L227.618 13.686C228.421 14.5173 228.922 15.6284 228.922 16.8789V20.4341C228.922 21.6833 228.422 22.7954 227.617 23.6015C226.85 24.3942 225.783 24.8849 224.631 24.9324C226.138 26.1285 227.5 27.7566 228.302 29.0713C228.381 29.17 228.491 29.3517 228.606 29.5469C228.665 29.6473 228.727 29.7559 228.791 29.8658L228.8 29.8819C228.867 29.9977 228.934 30.1147 229 30.2266L229.004 30.2333C229.096 30.4032 229.192 30.5748 229.271 30.716C229.346 30.8496 229.405 30.956 229.431 31.0082L229.523 31.1908L229.191 31.3566H227.478L227.371 31.1422C227.131 30.7163 226.845 30.2227 226.744 30.0719L226.74 30.0659C225.983 28.8378 224.726 27.3452 223.289 26.2477C222.238 25.4597 221.168 24.9362 220.228 24.9362H209.82ZM224.447 14.0401C225.216 14.0401 225.932 14.3585 226.437 14.8626C226.941 15.3932 227.259 16.083 227.259 16.8789V20.4341C227.259 21.2035 226.941 21.9198 226.437 22.4239C225.932 22.9545 225.216 23.2729 224.447 23.2729H209.616V14.0401H224.447ZM209.82 14.2442H224.447C225.159 14.2442 225.823 14.539 226.29 15.0051C226.761 15.5017 227.055 16.1417 227.055 16.8789V20.4341C227.055 21.1475 226.759 21.8124 226.292 22.2795L226.289 22.2833C225.823 22.7738 225.16 23.0688 224.447 23.0688H209.82V14.2442Z" fill="#B8B8B8"/>
<path fill-rule="evenodd" clip-rule="evenodd" d="M189.082 12.5809C187.888 12.5809 186.8 13.0319 186.004 13.7217C185.182 14.4381 184.678 15.4463 184.678 16.5606V27.1729C184.678 28.2872 185.182 29.2954 186.004 30.0117C186.8 30.7281 187.888 31.1526 189.082 31.1526H204.894V29.6934H189.082C188.259 29.6934 187.517 29.4015 186.959 28.924C186.455 28.4729 186.137 27.8362 186.137 27.1729V21.7076H203.753V20.2218H186.137V16.5606C186.137 15.8973 186.455 15.2605 186.959 14.8095C187.517 14.332 188.259 14.0401 189.082 14.0401H204.894V12.5809H189.082ZM187.094 14.9629C187.614 14.5179 188.309 14.2442 189.082 14.2442H205.098V12.3768H189.082C187.837 12.3768 186.702 12.8471 185.871 13.5675C185.008 14.3192 184.474 15.3822 184.474 16.5606V27.1729C184.474 28.3507 185.007 29.4129 185.869 30.1646M187.094 14.9629C186.628 15.3803 186.341 15.9633 186.341 16.5606V20.0177H203.958V21.9116H186.341V27.1729C186.341 27.7702 186.628 28.3532 187.094 28.7705C187.614 29.2156 188.309 29.4893 189.082 29.4893H205.098V31.3566H189.082C187.84 31.3566 186.704 30.9153 185.869 30.1646" fill="#B8B8B8"/>
<path fill-rule="evenodd" clip-rule="evenodd" d="M170.655 30.8077C170.788 31.0464 170.973 31.2322 171.212 31.3648C171.451 31.524 171.69 31.5771 171.982 31.5771C172.273 31.5771 172.539 31.4975 172.751 31.3648C172.99 31.2322 173.175 31.0199 173.308 30.7811L183.098 12.5809H181.427L172.008 30.0913L171.982 30.1179H171.955L171.928 30.0913L162.006 12.5809H160.334L170.655 30.8077ZM170.477 30.9068C170.477 30.9067 170.477 30.9069 170.477 30.9068L159.984 12.3768H162.125L171.965 29.7412L181.305 12.3768H183.44L173.486 30.8802C173.341 31.1418 173.132 31.3849 172.855 31.5406C172.61 31.6925 172.308 31.7811 171.982 31.7811C171.663 31.7811 171.384 31.7226 171.106 31.5392C170.837 31.3883 170.626 31.1763 170.477 30.9068Z" fill="#B8B8B8"/>
<path fill-rule="evenodd" clip-rule="evenodd" d="M138.743 29.9852C139.459 30.7015 140.468 31.1526 141.555 31.1526H154.794C155.909 31.1526 156.89 30.7015 157.633 29.9852C158.349 29.2689 158.8 28.2607 158.8 27.1729V16.5606C158.8 15.4728 158.349 14.4646 157.633 13.7483C156.89 13.0319 155.909 12.5809 154.794 12.5809H141.555C140.468 12.5809 139.459 13.0319 138.743 13.7483C138.027 14.4646 137.576 15.4728 137.576 16.5606V27.1729C137.576 28.2607 138.027 29.2689 138.743 29.9852ZM139.035 27.1729V16.5606C139.035 15.8707 139.327 15.234 139.778 14.783C140.229 14.332 140.865 14.0401 141.555 14.0401H154.794C155.484 14.0401 156.121 14.332 156.598 14.783C157.049 15.234 157.341 15.8707 157.341 16.5606V27.1729C157.341 27.8627 157.049 28.4995 156.598 28.9505C156.121 29.4015 155.484 29.6934 154.794 29.6934H141.555C140.865 29.6934 140.229 29.4015 139.778 28.9505C139.327 28.4995 139.035 27.8627 139.035 27.1729ZM156.456 28.8042C156.012 29.2229 155.424 29.4893 154.794 29.4893H141.555C140.923 29.4893 140.337 29.2215 139.922 28.8062C139.507 28.3909 139.239 27.8051 139.239 27.1729V16.5606C139.239 15.9284 139.507 15.3426 139.922 14.9273C140.337 14.512 140.923 14.2442 141.555 14.2442H154.794C155.424 14.2442 156.012 14.5106 156.456 14.9293C156.87 15.3445 157.137 15.9294 157.137 16.5606V27.1729C157.137 27.8041 156.87 28.389 156.456 28.8042ZM157.775 13.6014L157.777 13.6039C158.53 14.3569 159.004 15.4163 159.004 16.5606V27.1729C159.004 28.3171 158.53 29.3766 157.777 30.1295L157.775 30.1321C156.997 30.8816 155.966 31.3566 154.794 31.3566H141.555C140.411 31.3566 139.352 30.8824 138.599 30.1295C137.846 29.3766 137.372 28.3171 137.372 27.1729V16.5606C137.372 15.4163 137.846 14.3569 138.599 13.604C139.352 12.851 140.411 12.3768 141.555 12.3768H154.794C155.966 12.3768 156.997 12.8519 157.775 13.6014Z" fill="#B8B8B8"/>
<path fill-rule="evenodd" clip-rule="evenodd" d="M134.327 31.1524L131.541 26.0585H117.745L114.8 31.1524H113.129L123.502 13.1114C123.661 12.8726 123.847 12.6604 124.059 12.5277C124.298 12.3951 124.563 12.342 124.829 12.342C125.121 12.342 125.359 12.4216 125.598 12.5543C125.81 12.6869 125.996 12.8992 126.129 13.138L135.998 31.1524H134.327ZM117.863 26.2626L114.918 31.3565H112.776L123.332 12.998C123.499 12.7478 123.704 12.5091 123.951 12.3547L123.96 12.3491C124.235 12.1961 124.537 12.1379 124.829 12.1379C125.163 12.1379 125.436 12.2304 125.697 12.3759L125.706 12.381C125.954 12.5357 126.162 12.7768 126.307 13.0388L136.343 31.3565H134.206L131.42 26.2626H117.863ZM124.776 13.8278L118.594 24.5993H130.745L124.855 13.8278C124.855 13.8278 124.855 13.8012 124.829 13.8012H124.802L124.776 13.8278ZM124.802 13.8278H124.776C124.784 13.8278 124.793 13.8278 124.802 13.8278ZM124.802 13.8278V13.843V13.8278ZM124.812 14.1742L118.946 24.3952H130.401L124.812 14.1742Z" fill="#B8B8B8"/>
<path fill-rule="evenodd" clip-rule="evenodd" d="M105.836 31.1526C107.614 31.1526 109.206 30.4362 110.373 29.2689C111.54 28.1015 112.257 26.4831 112.257 24.7321V19.0014C112.257 17.2504 111.54 15.632 110.373 14.4646C109.206 13.2973 107.614 12.5809 105.836 12.5809H91.6953V31.1526H105.836ZM93.1545 14.0401H105.836C107.189 14.0401 108.436 14.5973 109.338 15.4993C110.24 16.4014 110.798 17.6483 110.798 19.0014V24.7321C110.798 26.0852 110.24 27.3321 109.338 28.2342C108.436 29.1362 107.189 29.6934 105.836 29.6934H93.1545V14.0401ZM93.3586 29.4893H105.836C107.133 29.4893 108.328 28.9555 109.194 28.0898C110.06 27.2242 110.593 26.0285 110.593 24.7321V19.0014C110.593 17.705 110.06 16.5093 109.194 15.6436C108.328 14.778 107.133 14.2442 105.836 14.2442H93.3586V29.4893ZM91.4912 31.3566V12.3768H105.836C107.67 12.3768 109.314 13.1165 110.517 14.3203C111.722 15.5245 112.461 17.1942 112.461 19.0014V24.7321C112.461 26.5393 111.722 28.209 110.517 29.4132C109.314 30.617 107.67 31.3566 105.836 31.3566H91.4912Z" fill="#B8B8B8"/>
<g filter="url(#filter0_di_79_712)">
<path d="M69.4042 1.50246C65.1753 -0.826096 59.8109 -0.438003 54.3011 2.59705L40.0742 10.4313C39.4094 10.7976 38.5899 10.7976 37.925 10.4313C33.2119 7.8363 28.4987 5.24059 23.7856 2.64556C18.2349 -0.411356 12.8383 -0.806281 8.5894 1.53389C4.33975 3.87406 2 8.52845 2 14.6409V29.3591C2 35.49 4.34189 40.156 8.59513 42.4975C10.4176 43.5012 12.4508 44 14.6157 44C17.4741 44 20.5625 43.1302 23.6982 41.4036L37.925 33.57C38.5899 33.2038 39.4094 33.2038 40.0742 33.57C44.7874 36.165 49.5006 38.7607 54.2137 41.3558C57.3759 43.0967 60.4872 43.974 63.3664 43.974C65.5406 43.974 67.5824 43.4732 69.4106 42.4661C73.6603 40.1266 76 35.4715 76 29.3591V14.6409C76 8.51 73.6574 3.844 69.4042 1.50246ZM69.6026 29.3591C69.6026 33.1443 68.3668 35.9963 66.2119 37.1824C63.7991 38.5107 60.9256 37.4031 57.4117 36.0714C54.8821 35.1128 53.7903 34.3209 44.7079 29.2395C43.4241 28.5207 41.588 27.5211 39.0655 27.4446C37.2244 27.3885 35.7114 27.8463 34.74 28.2317C29.9931 30.8609 25.247 33.4901 20.5002 36.1193C17.1023 37.9907 13.9287 38.3891 11.7938 37.2138C9.63534 36.025 8.39669 33.1621 8.39669 29.3584V14.6409C8.39669 10.8556 9.63247 8.0037 11.7881 6.81687C14.1551 5.51321 16.9461 6.57227 20.5876 7.92786C22.9839 8.8202 24.2562 9.60937 33.0801 14.6136C36.4285 16.5124 37.7854 17.007 39.5133 16.9565C40.8852 16.9162 42.002 16.5329 42.7464 16.2035C47.6644 13.4288 52.5818 10.6548 57.4998 7.88003C60.8977 6.00858 64.0706 5.60955 66.2062 6.78613C68.3647 7.975 69.6033 10.8379 69.6033 14.6416L69.6026 29.3591Z" fill="url(#paint0_linear_79_712)"/>
</g>
<defs>
<filter id="filter0_di_79_712" x="0.634483" y="0" width="75.3655" height="44.6828" filterUnits="userSpaceOnUse" color-interpolation-filters="sRGB">
<feFlood flood-opacity="0" result="BackgroundImageFix"/>
<feColorMatrix in="SourceAlpha" type="matrix" values="0 0 0 0 0 0 0 0 0 0 0 0 0 0 0 0 0 0 127 0" result="hardAlpha"/>
<feOffset dx="-1.36552" dy="0.682759"/>
<feComposite in2="hardAlpha" operator="out"/>
<feColorMatrix type="matrix" values="0 0 0 0 0.445833 0 0 0 0 0.445833 0 0 0 0 0.445833 0 0 0 1 0"/>
<feBlend mode="normal" in2="BackgroundImageFix" result="effect1_dropShadow_79_712"/>
<feBlend mode="normal" in="SourceGraphic" in2="effect1_dropShadow_79_712" result="shape"/>
<feColorMatrix in="SourceAlpha" type="matrix" values="0 0 0 0 0 0 0 0 0 0 0 0 0 0 0 0 0 0 127 0" result="hardAlpha"/>
<feOffset/>
<feGaussianBlur stdDeviation="2.73103"/>
<feComposite in2="hardAlpha" operator="arithmetic" k2="-1" k3="1"/>
<feColorMatrix type="matrix" values="0 0 0 0 1 0 0 0 0 1 0 0 0 0 1 0 0 0 0.3 0"/>
<feBlend mode="normal" in2="shape" result="effect2_innerShadow_79_712"/>
</filter>
<linearGradient id="paint0_linear_79_712" x1="76" y1="25.0556" x2="2.00073" y2="24.3661" gradientUnits="userSpaceOnUse">
<stop stop-color="#C7C7C7"/>
<stop offset="0.5" stop-color="#969696"/>
<stop offset="1" stop-color="#C7C7C7"/>
</linearGradient>
</defs>
</svg>
