<svg width="24" height="19" viewBox="0 0 24 19" fill="none" xmlns="http://www.w3.org/2000/svg">
<path d="M19.984 1.75062C19.9775 1.73745 19.9666 1.72713 19.9534 1.72151C18.4252 0.99428 16.8125 0.475705 15.1557 0.178767C15.1248 0.172813 15.0937 0.188065 15.0786 0.216601C14.859 0.629995 14.6597 1.05462 14.4813 1.48885C12.6954 1.20766 10.8787 1.20766 9.09275 1.48885C8.91323 1.05352 8.71069 0.628786 8.48605 0.216601C8.47028 0.188748 8.43968 0.173739 8.40892 0.178767C6.75193 0.475081 5.13913 0.993696 3.61113 1.72156C3.59805 1.72731 3.58701 1.73713 3.57954 1.74966C0.523836 6.48268 -0.313236 11.0993 0.097403 15.6588C0.099737 15.6814 0.110803 15.702 0.128069 15.716C1.90738 17.0824 3.89755 18.1254 6.01367 18.8005C6.04419 18.81 6.07719 18.7988 6.09637 18.7724C6.55087 18.131 6.95358 17.4518 7.30043 16.7417C7.31007 16.722 7.31112 16.699 7.30331 16.6784C7.2955 16.6578 7.27959 16.6417 7.25958 16.6341C6.62452 16.3821 6.00971 16.0783 5.42092 15.7255C5.3992 15.7123 5.38528 15.6887 5.38379 15.6626C5.3823 15.6365 5.39344 15.6114 5.41351 15.5956C5.5374 15.4996 5.65915 15.4006 5.77865 15.2988C5.80003 15.2806 5.82954 15.2764 5.85481 15.2882C9.71223 17.1141 13.8884 17.1141 17.7002 15.2882C17.7255 15.2757 17.7556 15.2795 17.7773 15.2979C17.8969 15.4002 18.019 15.4995 18.1434 15.5956C18.1635 15.6112 18.1749 15.6363 18.1736 15.6623C18.1723 15.6884 18.1585 15.7121 18.1369 15.7255C17.5494 16.0812 16.9341 16.3849 16.2973 16.6332C16.2773 16.641 16.2615 16.6574 16.2539 16.6781C16.2462 16.6989 16.2475 16.722 16.2572 16.7417C16.6099 17.4478 17.012 18.1262 17.4604 18.7713C17.479 18.7984 17.5124 18.8101 17.5431 18.8004C19.663 18.1276 21.6566 17.0845 23.4382 15.716C23.4557 15.7027 23.4669 15.6822 23.4689 15.6598C23.9605 10.3885 22.6458 5.80972 19.984 1.75062ZM7.8765 12.8826C6.71513 12.8826 5.75821 11.7772 5.75821 10.4196C5.75821 9.06202 6.69657 7.95654 7.8765 7.95654C9.06565 7.95654 10.0133 9.07163 9.99476 10.4195C9.99476 11.7772 9.05635 12.8826 7.8765 12.8826ZM15.7085 12.8826C14.5471 12.8826 13.5902 11.7772 13.5902 10.4196C13.5902 9.06202 14.5286 7.95654 15.7085 7.95654C16.8977 7.95654 17.8453 9.07163 17.8268 10.4195C17.8268 11.7772 16.8977 12.8826 15.7085 12.8826Z" fill="white"/>
</svg>
