<svg width="20" height="19" viewBox="0 0 20 19" fill="none" xmlns="http://www.w3.org/2000/svg">
<g clip-path="url(#clip0_22_140)">
<path fill-rule="evenodd" clip-rule="evenodd" d="M17.7788 6.66613C17.7788 11.7684 13.9 17.6483 6.80362 17.6483C4.70672 17.6518 2.65344 17.0494 0.890625 15.9136C1.19056 15.9503 1.49866 15.9646 1.81083 15.9646C3.6186 15.9646 5.2815 15.3503 6.60162 14.3135C5.79714 14.2977 5.01762 14.0312 4.37172 13.5512C3.72582 13.0712 3.24572 12.4017 2.99833 11.6358C3.57607 11.7457 4.17123 11.7226 4.73876 11.5684C3.86558 11.3918 3.08035 10.9185 2.5162 10.2289C1.95206 9.53924 1.64374 8.67565 1.64352 7.78455V7.73761C2.16382 8.02538 2.7596 8.2009 3.39212 8.22131C2.57352 7.67623 1.99403 6.83893 1.77216 5.88064C1.55028 4.92235 1.7028 3.91547 2.1985 3.06593C3.16759 4.25783 4.37611 5.23288 5.74582 5.92794C7.11554 6.62301 8.61592 7.0226 10.1498 7.10084C9.95481 6.27286 10.0387 5.40362 10.3886 4.62827C10.7384 3.85292 11.3345 3.2149 12.0842 2.81339C12.834 2.41189 13.6953 2.2694 14.5344 2.40808C15.3734 2.54676 16.1431 2.95883 16.7239 3.58024C17.5873 3.40937 18.4153 3.09257 19.1723 2.64346C18.8846 3.53766 18.2821 4.29697 17.4768 4.78031C18.2416 4.68816 18.9884 4.48249 19.6926 4.17007C19.1754 4.94541 18.5238 5.62206 17.7686 6.16814C17.7767 6.33549 17.7788 6.50285 17.7788 6.66613Z" fill="white"/>
</g>
<defs>
<clipPath id="clip0_22_140">
<rect width="18.8563" height="18.8563" fill="white" transform="translate(0.890625 -0.000976562)"/>
</clipPath>
</defs>
</svg>
