<svg width="19" height="19" viewBox="0 0 19 19" fill="none" xmlns="http://www.w3.org/2000/svg">
<g clip-path="url(#clip0_22_134)">
<mask id="mask0_22_134" style="mask-type:luminance" maskUnits="userSpaceOnUse" x="0" y="0" width="19" height="19">
<path d="M18.9244 0.71875H0.0681152V18.8208H18.9244V0.71875Z" fill="white"/>
</mask>
<g mask="url(#mask0_22_134)">
<path d="M18.9241 3.73576C18.9241 2.06951 17.5171 0.71875 15.7814 0.71875H3.21084C1.47514 0.71875 0.0680951 2.06953 0.0681152 3.73579L0.0682607 15.8039C0.0682808 17.4701 1.47532 18.8208 3.21098 18.8208H15.7814C17.5171 18.8208 18.9242 17.4701 18.9242 15.8038L18.9241 3.73576ZM15.9919 6.00229H14.4858C13.3049 6.00229 13.0763 6.54082 13.0763 7.33279V9.07736H15.8953L15.5276 11.8085H13.0763V18.8208H10.137V11.8108H7.67868V9.07736H10.137V7.06353C10.137 4.7261 11.6243 3.45216 13.7975 3.45216C14.8393 3.45216 15.7326 3.52684 15.9943 3.56078V6.00229H15.9919Z" fill="white"/>
</g>
</g>
<defs>
<clipPath id="clip0_22_134">
<rect width="18.8563" height="18.8563" fill="white" transform="translate(0.0681152 -0.000976562)"/>
</clipPath>
</defs>
</svg>
