<svg width="20" height="19" viewBox="0 0 20 19" fill="none" xmlns="http://www.w3.org/2000/svg">
<path fill-rule="evenodd" clip-rule="evenodd" d="M2.5787 8.34917C1.84674 8.64049 1.46272 8.92536 1.42793 9.20378C1.36865 9.67556 1.95885 9.86118 2.7604 10.1125C2.86993 10.1473 2.98333 10.1821 3.09931 10.2208C3.88926 10.4773 4.95111 10.7777 5.50265 10.7893C6.00394 10.7996 6.56322 10.5933 7.18048 10.1705C11.3918 7.3257 13.5658 5.88846 13.7024 5.85752C13.799 5.83561 13.933 5.80725 14.0232 5.88846C14.1134 5.96838 14.1044 6.12048 14.0954 6.16173C14.0361 6.41051 11.7243 8.56186 10.5258 9.67556C10.1521 10.0223 9.88795 10.2685 9.83382 10.3252C9.71269 10.4503 9.58898 10.5701 9.47042 10.6849C8.73589 11.3912 8.18692 11.9223 9.50135 12.7885C10.1328 13.2049 10.6379 13.549 11.1418 13.8919C11.6921 14.267 12.241 14.6408 12.9524 15.1074C13.1328 15.226 13.3055 15.3485 13.4743 15.4684C14.1147 15.9259 14.6908 16.3359 15.4021 16.2714C15.8145 16.2327 16.2423 15.8447 16.4588 14.6859C16.9704 11.9455 17.9781 6.01092 18.2114 3.56438C18.2256 3.36125 18.2169 3.15717 18.1856 2.95597C18.1668 2.79347 18.0877 2.64394 17.9639 2.53705C17.7797 2.38623 17.4936 2.35401 17.3647 2.35658C16.7835 2.3669 15.8918 2.67755 11.5967 4.46411C10.0928 5.08928 7.08641 6.38473 2.5787 8.34917Z" fill="white"/>
</svg>
