<svg width="20" height="19" viewBox="0 0 20 19" fill="none" xmlns="http://www.w3.org/2000/svg">
<g clip-path="url(#clip0_22_127)">
<path fill-rule="evenodd" clip-rule="evenodd" d="M18.6888 8.98027C18.6887 9.12896 18.6886 9.2778 18.6886 9.42679C18.6886 9.5934 18.6888 9.7598 18.689 9.92604C18.6906 10.9777 18.6921 12.0232 18.6311 13.0752C18.5625 14.4905 18.2419 15.7442 17.2048 16.7813C16.17 17.8162 14.914 18.139 13.4988 18.2076C12.4292 18.2677 11.3664 18.2665 10.2969 18.2653C10.1482 18.2652 9.99942 18.265 9.85045 18.265C9.70179 18.265 9.55325 18.2652 9.40482 18.2653C8.33676 18.2665 7.27364 18.2677 6.20201 18.2076C4.78686 18.139 3.53311 17.8183 2.49608 16.7813C1.46125 15.7465 1.13841 14.4905 1.06987 13.0752C1.00968 12.0056 1.01086 10.941 1.01205 9.87249C1.01221 9.72401 1.01238 9.57545 1.01238 9.42679C1.01238 9.27811 1.01221 9.12957 1.01205 8.98111C1.01086 7.91304 1.00969 6.84992 1.06987 5.77828C1.13841 4.3631 1.45903 3.10933 2.49608 2.07227C3.53091 1.03742 4.78686 0.714587 6.20201 0.64604C7.27166 0.585859 8.33449 0.587035 9.40397 0.588219C9.55266 0.588383 9.70147 0.588548 9.85045 0.588548C9.99912 0.588548 10.1477 0.588383 10.2961 0.588219C11.3642 0.587035 12.4272 0.585858 13.4988 0.64604C14.914 0.714587 16.1678 1.03521 17.2048 2.07227C18.2397 3.10713 18.5625 4.3631 18.6311 5.77828C18.6912 6.84794 18.69 7.91078 18.6888 8.98027ZM5.31311 9.42679C5.31311 11.9366 7.33855 13.962 9.84824 13.962C12.3579 13.962 14.3833 11.9366 14.3833 9.42679C14.3833 6.91706 12.3579 4.89157 9.84824 4.89157C7.33855 4.89157 5.31311 6.91706 5.31311 9.42679ZM13.5099 4.70584C13.5099 5.29181 13.9831 5.76501 14.5691 5.76501C15.155 5.76501 15.6261 5.29403 15.6283 4.70584C15.6283 4.11987 15.155 3.64667 14.5691 3.64667C13.9831 3.64667 13.5099 4.11987 13.5099 4.70584ZM6.90086 9.42691C6.90086 7.80387 8.22535 6.47936 9.84836 6.47936C11.4714 6.47936 12.7959 7.80387 12.7959 9.42691C12.7959 11.0499 11.4714 12.3745 9.84836 12.3745C8.22535 12.3745 6.90086 11.0499 6.90086 9.42691Z" fill="white"/>
</g>
<defs>
<clipPath id="clip0_22_127">
<rect width="18.8563" height="18.8563" fill="white" transform="translate(0.421875 -0.000976562)"/>
</clipPath>
</defs>
</svg>
