<svg width="20" height="15" viewBox="0 0 20 15" fill="none" xmlns="http://www.w3.org/2000/svg">
<path d="M11.2355 7.16239C11.2355 11.0196 8.8549 14.1473 5.91685 14.1473C5.21947 14.1485 4.52875 13.9688 3.8841 13.6184C3.23946 13.2681 2.65352 12.7539 2.15975 12.1053C1.66597 11.4567 1.27403 10.6863 1.0063 9.83824C0.73857 8.99013 0.600293 8.08087 0.599365 7.16239C0.599365 3.30363 2.97997 0.177499 5.91685 0.177499C6.61432 0.176072 7.30518 0.355619 7.94996 0.70589C8.59474 1.05616 9.1808 1.57029 9.67471 2.21891C10.1686 2.86754 10.5606 3.63796 10.8285 4.48617C11.0963 5.33438 11.2346 6.24375 11.2355 7.16239ZM17.0692 7.16239C17.0692 10.7945 15.8789 13.7375 14.4104 13.7375C12.942 13.7375 11.7517 10.793 11.7517 7.16239C11.7517 3.53025 12.942 0.587279 14.4104 0.587279C15.8789 0.587279 17.0692 3.5318 17.0692 7.16239ZM19.4557 7.16239C19.4557 10.4158 19.0373 13.053 18.5199 13.053C18.0037 13.053 17.5854 10.4142 17.5854 7.16239C17.5854 3.90899 18.0037 1.27181 18.5211 1.27181C19.0373 1.27181 19.4557 3.90899 19.4557 7.16239Z" fill="white"/>
</svg>
