<svg width="26" height="24" viewBox="0 0 26 24" fill="none" xmlns="http://www.w3.org/2000/svg">
<path d="M8.624 9.96642C6.69788 9.96642 4.77175 9.98447 2.84562 9.96041C1.31073 9.94236 0.500156 9.0901 0.61452 7.68237C0.684743 6.82209 1.23449 6.19041 2.07517 6.00191C2.61689 5.87959 3.16865 5.89363 3.7184 5.89363C5.81908 5.89363 7.92177 5.87758 10.0225 5.90365C10.6364 5.91167 10.8691 5.70713 10.8451 5.08147C10.8049 4.08283 10.823 3.08217 10.8391 2.08152C10.8611 0.852263 11.6898 -0.00200179 12.8294 3.52299e-06C13.961 0.00200884 14.7976 0.862289 14.8237 2.09355C14.8458 3.09421 14.8598 4.09486 14.8197 5.09351C14.7936 5.7332 15.0545 5.91167 15.6564 5.90566C17.8333 5.8816 20.0082 5.89162 22.1852 5.90165C22.5844 5.90165 22.9857 5.92972 23.379 5.98788C24.4163 6.14028 25.0222 6.84014 25.0463 7.87287C25.0703 8.91965 24.5106 9.66763 23.5054 9.8802C22.5904 10.0747 21.6595 9.96241 20.7365 9.9584C20.2229 9.9584 19.9179 10.1248 19.6611 10.578C18.8546 11.9978 17.8393 13.2752 16.6696 14.4082C16.178 14.8835 16.3145 15.072 16.796 15.3808C19.0111 16.8025 21.3304 18.0258 23.7401 19.0806C23.9929 19.1909 24.2497 19.2911 24.4925 19.4175C25.5579 19.9629 25.9812 21.0438 25.5338 22.0545C25.1004 23.0311 24.0391 23.4802 22.9496 23.0712C21.0977 22.3753 19.3361 21.4769 17.6026 20.5284C16.1981 19.7604 14.8197 18.9422 13.5196 18.0057C13.0481 17.6668 12.721 17.6929 12.2656 18.0117C9.44662 19.985 6.41899 21.5732 3.23486 22.8746C2.77138 23.0651 2.30791 23.2496 1.78625 23.1915C0.945573 23.0972 0.199198 22.4435 0.0447067 21.6574C-0.141887 20.6969 0.261396 19.8346 1.14621 19.4135C1.93673 19.0385 2.75734 18.7276 3.55387 18.3667C5.39975 17.5265 7.17138 16.5439 8.89888 15.483C9.32423 15.2224 9.52688 15.0439 9.14165 14.5285C8.50362 13.6763 8.68018 12.6235 9.46668 11.8935C10.195 11.2157 11.128 11.1857 11.9987 11.8093C12.618 12.2532 13.2059 12.1957 13.7624 11.6369C14.0794 11.318 14.3924 10.9931 14.6913 10.6563C14.8358 10.4938 15.0966 10.3274 15.0103 10.1048C14.914 9.85413 14.6111 9.97846 14.4024 9.97645C12.4763 9.96642 10.5501 9.97043 8.624 9.96843V9.96642Z" fill="#D5D5D5"/>
</svg>
