<svg width="22" height="26" viewBox="0 0 22 26" fill="none" xmlns="http://www.w3.org/2000/svg">
<path d="M8.59917 2.03743C10.0883 1.28473 11.8466 1.28473 13.3358 2.03743L18.2969 4.54505C20.0643 5.43839 21.1786 7.25021 21.1786 9.23053V15.4928C21.1786 17.3817 20.1639 19.125 18.5214 20.0579L13.5603 22.8756C11.9524 23.7888 9.98258 23.7889 8.37466 22.8756L3.41355 20.0579C1.77108 19.125 0.756354 17.3817 0.756353 15.4928L0.75635 9.23053C0.756349 7.25021 1.87067 5.43838 3.63805 4.54505L8.59917 2.03743Z" stroke="#E7E7E7" stroke-width="1.5"/>
<path d="M4.36816 19.4232C4.36816 18.85 4.79649 18.3657 5.36685 18.3024C9.64731 17.8286 12.4242 17.8713 16.6952 18.313C16.9085 18.3354 17.1107 18.4194 17.277 18.5548C17.4433 18.6902 17.5666 18.8711 17.6318 19.0754C17.697 19.2797 17.7012 19.4985 17.6441 19.7052C17.587 19.9119 17.4709 20.0975 17.31 20.2393C12.2694 24.633 9.38876 24.5725 4.72325 20.2438C4.49577 20.0329 4.36816 19.7328 4.36816 19.4232Z" fill="#E8E7E7"/>
<path d="M15.4646 10.7513C15.4646 11.9285 14.9969 13.0575 14.1645 13.8899C13.3321 14.7223 12.2032 15.1899 11.026 15.1899C9.8488 15.1899 8.71983 14.7223 7.88743 13.8899C7.05504 13.0575 6.5874 11.9285 6.5874 10.7513C6.5874 9.57414 7.05504 8.44517 7.88743 7.61278C8.71983 6.78038 9.8488 6.31274 11.026 6.31274C12.2032 6.31274 13.3321 6.78038 14.1645 7.61278C14.9969 8.44517 15.4646 9.57414 15.4646 10.7513Z" fill="#E8E7E7"/>
</svg>
